<svg xmlns="http://www.w3.org/2000/svg" width="512" height="512" viewBox="0 0 512 512">
  <!-- Background -->
  <rect width="512" height="512" fill="#1e40af" rx="96"/>
  
  <!-- Factory/Production Icon -->
  <path fill="#ffffff" d="M128 192h64v-48l64 64-64 64v-48h-64z"/>
  <rect x="96" y="256" width="128" height="160" fill="#60a5fa" rx="8"/>
  <rect x="256" y="256" width="128" height="160" fill="#60a5fa" rx="8"/>
  
  <!-- Conveyor Belt -->
  <rect x="96" y="384" width="288" height="32" fill="#ffffff" opacity="0.3"/>
  
  <!-- Boxes/Products -->
  <rect x="112" y="288" width="32" height="32" fill="#ffffff" rx="4"/>
  <rect x="272" y="288" width="32" height="32" fill="#ffffff" rx="4"/>
  <rect x="176" y="288" width="32" height="32" fill="#ffffff" rx="4"/>
  <rect x="336" y="288" width="32" height="32" fill="#ffffff" rx="4"/>
  
  <!-- Smokestack -->
  <rect x="416" y="128" width="48" height="192" fill="#3b82f6" rx="8"/>
  <ellipse cx="440" cy="120" rx="12" ry="8" fill="#60a5fa" opacity="0.6"/>
  <ellipse cx="440" cy="105" rx="16" ry="10" fill="#60a5fa" opacity="0.4"/>
  <ellipse cx="440" cy="88" rx="20" ry="12" fill="#60a5fa" opacity="0.2"/>
</svg>